<svg width="157" height="157" viewBox="0 0 157 157" fill="none" xmlns="http://www.w3.org/2000/svg">
<path d="M128.129 6.43175C128.129 7.09175 128.129 7.75175 128.129 8.43175C129.22 8.56517 129.22 8.56517 130.333 8.70128C138.766 10.9038 144.74 19.9006 149.136 27.0126C157.013 40.4976 158.278 55.9046 155.434 71.1622C150.693 86.5598 140.458 98.392 126.36 105.908C113.266 112.171 97.733 114.066 83.731 109.455C68.3816 103.417 56.885 94.3726 49.9107 79.2818C43.3816 63.8202 43.8821 49.0429 49.1294 33.4318C55.2985 19.5747 66.993 9.07655 80.9419 3.55675C96.566 -2.19049 113.304 -0.788266 128.129 6.43175Z" fill="#FF6A2B"/>
<path d="M53.1293 96.4316C55.4393 98.4116 57.7493 100.392 60.1293 102.432C58.3825 105.925 57.2152 107.571 54.5043 110.182C53.8726 110.795 53.241 111.409 52.5902 112.041C52.1081 112.5 51.626 112.959 51.1293 113.432C51.6243 113.947 52.1193 114.463 52.6293 114.994C54.7412 118.426 54.6158 120.441 54.1293 124.432C52.5298 127.014 50.4691 129.004 48.2855 131.1C47.683 131.702 47.0805 132.304 46.4597 132.924C45.1834 134.192 43.8985 135.452 42.6058 136.703C40.6444 138.604 38.7137 140.533 36.7855 142.469C35.5372 143.702 34.2873 144.933 33.0355 146.162C32.4644 146.732 31.8932 147.302 31.3047 147.889C26.3811 152.617 21.32 156.053 14.4418 156.869C8.93051 156.141 5.58311 153.61 2.14491 149.236C0.247453 145.865 -0.278389 142.254 0.129282 138.432C2.32575 133.088 5.51639 129.563 9.51991 125.537C10.1427 124.904 10.7656 124.271 11.4073 123.619C12.7213 122.29 14.0394 120.965 15.3612 119.644C17.375 117.623 19.3635 115.58 21.3519 113.535C22.6356 112.243 23.9207 110.952 25.2074 109.662C25.7962 109.052 26.385 108.441 26.9916 107.813C30.83 104.036 33.5074 102.468 39.1293 102.432C41.0668 103.869 41.0668 103.869 42.1293 105.432C45.3445 104.023 47.4511 102.328 49.8793 99.8066C50.4929 99.175 51.1065 98.5434 51.7387 97.8926C52.1976 97.4105 52.6565 96.9284 53.1293 96.4316Z" fill="#FF6A2B"/>
<path d="M87.1294 23.4317C91.2843 25.9441 94.2745 28.913 96.1294 33.4317C96.6145 38.6706 95.9858 41.9995 93.1294 46.4317C89.6536 50.2142 86.3975 51.2467 81.4107 51.5957C76.5872 51.2488 73.4746 48.8636 70.1919 45.3692C68.5172 40.739 68.4781 36.2915 69.1294 31.4317C72.6674 24.9 79.8085 21.6684 87.1294 23.4317Z" fill="#FFF8F3"/>
<path d="M88.1295 61.4315C91.7849 63.5147 94.9205 66.321 96.1295 70.4315C96.6145 75.6703 95.9858 78.9992 93.1295 83.4315C88.8107 87.3289 86.1341 88.7985 80.2271 88.7127C75.84 88.1245 73.1294 85.5314 70.2545 82.369C68.4847 77.7479 68.344 73.3054 69.1295 68.4315C71.317 65.4315 71.317 65.4315 74.1295 63.4315C74.872 62.8127 75.6145 62.194 76.3795 61.5565C80.4741 59.8814 83.9138 60.2068 88.1295 61.4315Z" fill="#FFF8F3"/>
<path d="M108.129 33.4316C111.504 33.9789 113.212 34.4865 116.129 36.4316C116.317 39.3027 116.317 39.3027 116.129 42.8691C115.986 48.7218 116.727 53.2828 118.454 58.8301C119.988 64.7361 120.048 70.9591 117.129 76.4316C111.379 75.6816 111.379 75.6816 109.129 73.4316C109.04 71.1816 109.04 71.1816 109.192 68.4316C109.279 64.4544 108.978 61.4192 107.629 57.6816C105.388 51.074 104.416 41.5413 107.149 34.9863C107.472 34.4733 107.796 33.9602 108.129 33.4316Z" fill="#FFF8F3"/>
<path d="M126.129 33.4316C131.879 34.1816 131.879 34.1816 134.129 36.4316C134.219 38.6816 134.219 38.6816 134.067 41.4316C133.979 45.4241 134.29 48.4867 135.629 52.2441C138.226 59.9228 138.623 69.0133 135.129 76.4316C131.755 75.8844 130.047 75.3767 127.129 73.4316C126.942 70.5605 126.942 70.5605 127.129 66.9941C127.273 61.1415 126.531 56.5804 124.805 51.0332C123.271 45.1272 123.211 38.9042 126.129 33.4316Z" fill="#FFF8F3"/>
<path d="M83.8169 69.8066C84.58 70.0129 85.3431 70.2191 86.1294 70.4316C86.4594 72.4116 86.7894 74.3916 87.1294 76.4316C85.4419 78.0566 85.4419 78.0566 83.1294 79.4316C80.3794 78.6191 80.3794 78.6191 78.1294 77.4316C77.9419 74.5566 77.9419 74.5566 78.1294 71.4316C81.1294 69.4316 81.1294 69.4316 83.8169 69.8066Z" fill="#FF6A2B"/>
<path d="M83.8169 32.8066C84.58 33.0129 85.3431 33.2191 86.1294 33.4316C86.4594 35.4116 86.7894 37.3916 87.1294 39.4316C85.4419 41.0566 85.4419 41.0566 83.1294 42.4316C80.3794 41.6191 80.3794 41.6191 78.1294 40.4316C77.9419 37.5566 77.9419 37.5566 78.1294 34.4316C81.1294 32.4316 81.1294 32.4316 83.8169 32.8066Z" fill="#FF6A2B"/>
</svg>
